{
  "asset": {
    "version": "2.0",
    "generator": "THREE.GLTFExporter"
  },
  "scene": 0,
  "scenes": [
    {
      "nodes": [0]
    }
  ],
  "nodes": [
    {
      "mesh": 0,
      "name": "Coin"
    }
  ],
  "meshes": [
    {
      "primitives": [
        {
          "attributes": {
            "POSITION": 0,
            "NORMAL": 1,
            "TEXCOORD_0": 2
          },
          "indices": 3,
          "material": 0
        }
      ]
    }
  ],
  "materials": [
    {
      "name": "CoinMaterial",
      "pbrMetallicRoughness": {
        "baseColorFactor": [1.0, 0.84, 0.0, 1.0],
        "metallicFactor": 1.0,
        "roughnessFactor": 0.1
      }
    }
  ],
  "accessors": [
    {
      "bufferView": 0,
      "componentType": 5126,
      "count": 32,
      "max": [0.5, 0.5, 0.1],
      "min": [-0.5, -0.5, -0.1],
      "type": "VEC3"
    },
    {
      "bufferView": 1,
      "componentType": 5126,
      "count": 32,
      "type": "VEC3"
    },
    {
      "bufferView": 2,
      "componentType": 5126,
      "count": 32,
      "type": "VEC2"
    },
    {
      "bufferView": 3,
      "componentType": 5123,
      "count": 60,
      "type": "SCALAR"
    }
  ],
  "bufferViews": [
    {
      "buffer": 0,
      "byteLength": 384,
      "byteOffset": 0
    },
    {
      "buffer": 0,
      "byteLength": 384,
      "byteOffset": 384
    },
    {
      "buffer": 0,
      "byteLength": 256,
      "byteOffset": 768
    },
    {
      "buffer": 0,
      "byteLength": 120,
      "byteOffset": 1024
    }
  ],
  "buffers": [
    {
      "byteLength": 1144
    }
  ]
} 